<?xml version="1.0" encoding="UTF-8" standalone="no"?>
<!-- Created with Inkscape (http://www.inkscape.org/) -->

<svg
   version="1.1"
   id="svg99"
   xml:space="preserve"
   width="266.66666"
   height="266.66666"
   viewBox="0 0 266.66666 266.66666"
   sodipodi:docname="logo.svg"
   inkscape:version="1.1 (c68e22c387, 2021-05-23)"
   xmlns:inkscape="http://www.inkscape.org/namespaces/inkscape"
   xmlns:sodipodi="http://sodipodi.sourceforge.net/DTD/sodipodi-0.dtd"
   xmlns="http://www.w3.org/2000/svg"
   xmlns:svg="http://www.w3.org/2000/svg"><defs
     id="defs103"><clipPath
       clipPathUnits="userSpaceOnUse"
       id="clipPath113"><path
         d="M 0,200 H 200 V 0 H 0 Z"
         id="path111" /></clipPath></defs><sodipodi:namedview
     id="namedview101"
     pagecolor="#ffffff"
     bordercolor="#999999"
     borderopacity="1"
     inkscape:pageshadow="0"
     inkscape:pageopacity="0"
     inkscape:pagecheckerboard="0"
     showgrid="false"
     inkscape:zoom="3.1200001"
     inkscape:cx="133.17307"
     inkscape:cy="133.49358"
     inkscape:window-width="1920"
     inkscape:window-height="1017"
     inkscape:window-x="-8"
     inkscape:window-y="-8"
     inkscape:window-maximized="1"
     inkscape:current-layer="g105" /><g
     id="g105"
     inkscape:groupmode="layer"
     inkscape:label="IV - Logo"
     transform="matrix(1.3333333,0,0,-1.3333333,0,266.66667)"><g
       id="g107"><g
         id="g109"
         clip-path="url(#clipPath113)"><g
           id="g115"
           transform="translate(38.2222,59.6055)"><path
             d="M 0,0 V 86.604 C -10.774,70.277 -19.816,52.603 -19.816,42.646 -19.816,36.107 -11.026,18.095 0,0"
             style="fill:#006699;fill-opacity:1;fill-rule:nonzero;stroke:none"
             id="path117" /></g><g
           id="g119"
           transform="translate(86.9067,107.3701)"><path
             d="m 0,0 c -4.427,0 -8.598,-0.66 -12.504,-1.986 -3.912,-1.326 -7.048,-2.814 -9.398,-4.428 v -66.602 c 1.906,-0.436 4.381,-0.842 7.402,-1.213 3.02,-0.372 6.679,-0.548 10.957,-0.548 9.876,0 17.624,3.353 23.22,10.06 5.613,6.71 8.417,15.972 8.417,27.779 0,11.346 -2.247,20.347 -6.743,26.991 C 16.835,-3.312 9.731,0 0,0"
             style="fill:#006699;fill-opacity:1;fill-rule:nonzero;stroke:none"
             id="path121" /></g><g
           id="g123"
           transform="translate(173.291,156.1226)"><path
             d="m 0,0 c -7.263,12.68 -66.648,26.807 -92.622,27.741 48.352,-9.176 70.746,-79.304 60.839,-126.476 -0.678,-4.422 -1.719,-8.6 -3.145,-12.518 -2.643,-7.135 -6.404,-13.241 -11.185,-18.419 22.372,8.192 44.971,18.601 52.549,25.5 C 16.583,-94.963 8.417,-14.76 0,0"
             style="fill:#035a7c;fill-opacity:1;fill-rule:nonzero;stroke:none"
             id="path125" /></g><g
           id="g127"
           transform="translate(80.6694,183.8633)"><path
             d="m 0,0 c -4.965,0.179 -8.715,-0.122 -10.641,-1.01 -1.374,-0.626 -3.108,-1.935 -5.024,-3.604 v -55.283 c 3.088,1.624 6.888,3.091 11.385,4.425 4.495,1.326 9.483,1.989 14.934,1.989 8.114,0 15.377,-1.437 21.795,-4.313 6.43,-2.873 11.764,-6.975 16.062,-12.28 4.27,-5.314 7.54,-11.695 9.835,-19.144 2.29,-7.441 3.421,-15.665 3.421,-24.672 0,-4.399 -0.316,-8.59 -0.929,-12.584 C 70.746,-79.303 48.352,-9.175 0,0"
             style="fill:#006699;fill-opacity:1;fill-rule:nonzero;stroke:none"
             id="path129" /></g></g></g></g></svg>
